# xmcd CD database file generated by MAGIX-FreeDB-player v3.0beta1
#
# Track frame offsets:
#	150
#	21064
#	41463
#	51110
#	78628
#	102522
#	116165
#	131621
#	152486
#	170720
#
# Disc length: 2508
#
# Revision: 0
# Processed by: cddbd v1.5.2PL0 Copyright (c) Steve Scherf et al.
# Submitted via: MAGIX-FreeDB-player v3.0beta1
#
DISCID=8009ca0a
DTITLE=Salomon - Original Kiss Of the Day
DYEAR=2009
DGENRE=World
TTITLE0=Original Kiss Of the Day
TTITLE1=Brise
TTITLE2=Ain Van Rech "Shalom" Aleph vav Rech
TTITLE3=Trempage
TTITLE4=Troglodite
TTITLE5=Panam
TTITLE6=XIIeme Croisade
TTITLE7=Eclat
TTITLE8=Mr Cesaire
TTITLE9=Happyness
EXTD=
EXTT0=Production RC Salomon
EXTT1=Production RC Salomon
EXTT2=Production RC Salomon
EXTT3=Production RC Salomon
EXTT4=Production RC Salomon
EXTT5=Production RC Salomon
EXTT6=Production RC Salomon
EXTT7=Production RC Salomon
EXTT8=Production RC Salomon
EXTT9=Production RC Salomon
PLAYORDER=
